<svg width="33" height="32" viewBox="0 0 33 32" fill="none" xmlns="http://www.w3.org/2000/svg">
<path fill-rule="evenodd" clip-rule="evenodd" d="M9.61888 0.956205C11.3164 0.879777 11.8576 0.862793 16.1816 0.862793C20.5056 0.862793 21.0469 0.881192 22.7429 0.956205C24.4389 1.03122 25.5966 1.29588 26.6096 1.67944C27.6704 2.07149 28.6327 2.68433 29.4286 3.47691C30.239 4.25393 30.8642 5.19371 31.2636 6.23257C31.6572 7.2233 31.9264 8.35556 32.0045 10.0115C32.0827 11.6745 32.1 12.2039 32.1 16.4315C32.1 20.6605 32.0812 21.1898 32.0045 22.85C31.9278 24.5059 31.6572 25.6382 31.2636 26.6289C30.8642 27.6679 30.238 28.6093 29.4286 29.3874C28.6327 30.18 27.6704 30.7914 26.6096 31.1821C25.5966 31.567 24.4389 31.8303 22.7458 31.9067C21.0469 31.9831 20.5056 32.0001 16.1816 32.0001C11.8576 32.0001 11.3164 31.9817 9.61888 31.9067C7.92574 31.8317 6.76803 31.567 5.75504 31.1821C4.69273 30.7914 3.73025 30.1789 2.93459 29.3874C2.12474 28.6099 1.49804 27.669 1.09818 26.6303C0.706005 25.6396 0.436839 24.5073 0.358694 22.8514C0.280549 21.1884 0.263184 20.6591 0.263184 16.4315C0.263184 12.2024 0.281996 11.6731 0.358694 10.0143C0.435392 8.35556 0.706005 7.2233 1.09818 6.23257C1.49863 5.19383 2.12581 4.25296 2.93603 3.4755C3.73056 2.68362 4.69208 2.0707 5.75359 1.67944C6.76658 1.29588 7.92429 1.03263 9.61743 0.956205H9.61888ZM22.6141 3.75856C20.9354 3.68355 20.4318 3.66798 16.1816 3.66798C11.9314 3.66798 11.4278 3.68355 9.74912 3.75856C8.19635 3.82791 7.35412 4.08126 6.79263 4.29497C6.05026 4.57804 5.51916 4.91348 4.96201 5.45838C4.43388 5.96089 4.02743 6.57264 3.77247 7.24877C3.55396 7.79792 3.29492 8.62165 3.22401 10.1403C3.14731 11.7821 3.13139 12.2746 3.13139 16.4315C3.13139 20.5883 3.14731 21.0808 3.22401 22.7226C3.29492 24.2413 3.55396 25.065 3.77247 25.6141C4.02717 26.2892 4.43381 26.9021 4.96201 27.4045C5.47575 27.9211 6.10235 28.3188 6.79263 28.5679C7.35412 28.7816 8.19635 29.035 9.74912 29.1043C11.4278 29.1794 11.9299 29.1949 16.1816 29.1949C20.4333 29.1949 20.9354 29.1794 22.6141 29.1043C24.1669 29.035 25.0091 28.7816 25.5706 28.5679C26.313 28.2849 26.8441 27.9494 27.4012 27.4045C27.9294 26.9021 28.3361 26.2892 28.5907 25.6141C28.8093 25.065 29.0683 24.2413 29.1392 22.7226C29.2159 21.0808 29.2318 20.5883 29.2318 16.4315C29.2318 12.2746 29.2159 11.7821 29.1392 10.1403C29.0683 8.62165 28.8093 7.79792 28.5907 7.24877C28.3013 6.52271 27.9584 6.00328 27.4012 5.45838C26.8874 4.94188 26.2619 4.54437 25.5706 4.29497C25.0091 4.08126 24.1669 3.82791 22.6141 3.75856ZM14.1484 21.2308C15.2839 21.6931 16.5483 21.7555 17.7256 21.4074C18.9029 21.0592 19.9201 20.3221 20.6035 19.3219C21.2868 18.3217 21.594 17.1205 21.4724 15.9235C21.3508 14.7265 20.8081 13.6078 19.9369 12.7587C19.3816 12.2159 18.7101 11.8002 17.9707 11.5417C17.2314 11.2832 16.4427 11.1882 15.6614 11.2635C14.88 11.3389 14.1255 11.5828 13.452 11.9776C12.7786 12.3724 12.2031 12.9083 11.7669 13.5468C11.3306 14.1853 11.0446 14.9104 10.9293 15.6699C10.814 16.4295 10.8723 17.2046 11.1001 17.9395C11.3278 18.6744 11.7194 19.3507 12.2465 19.9199C12.7736 20.489 13.4231 20.9367 14.1484 21.2308ZM10.396 10.773C11.1558 10.0299 12.0578 9.44042 13.0505 9.03827C14.0432 8.63611 15.1071 8.42912 16.1816 8.42912C17.2561 8.42912 18.3201 8.63611 19.3128 9.03827C20.3055 9.44042 21.2075 10.0299 21.9672 10.773C22.727 11.516 23.3297 12.3982 23.7409 13.3691C24.1521 14.34 24.3637 15.3806 24.3637 16.4315C24.3637 17.4823 24.1521 18.5229 23.7409 19.4938C23.3297 20.4647 22.727 21.3469 21.9672 22.09C20.4328 23.5907 18.3516 24.4338 16.1816 24.4338C14.0116 24.4338 11.9304 23.5907 10.396 22.09C8.86154 20.5892 7.9995 18.5538 7.9995 16.4315C7.9995 14.3091 8.86154 12.2737 10.396 10.773ZM26.1784 9.62087C26.3667 9.44717 26.5174 9.23828 26.6216 9.00658C26.7259 8.77488 26.7816 8.52508 26.7853 8.27196C26.7891 8.01884 26.7409 7.76756 26.6436 7.53299C26.5463 7.29841 26.4019 7.08532 26.2188 6.90632C26.0358 6.72732 25.8179 6.58605 25.5781 6.49089C25.3383 6.39572 25.0813 6.34859 24.8225 6.35228C24.5637 6.35597 24.3083 6.41041 24.0714 6.51237C23.8345 6.61434 23.6209 6.76175 23.4433 6.94589C23.0979 7.30401 22.9088 7.7797 22.9161 8.27196C22.9235 8.76423 23.1267 9.23431 23.4826 9.58244C23.8385 9.93056 24.3192 10.1293 24.8225 10.1365C25.3258 10.1437 25.8122 9.9587 26.1784 9.62087Z" fill="#001145"/>
</svg>
