<svg width="35" height="34" viewBox="0 0 35 34" fill="none" xmlns="http://www.w3.org/2000/svg">
<path d="M4.8742 7.38714C6.72504 7.38714 8.22544 5.95733 8.22544 4.19357C8.22544 2.42981 6.72504 1 4.8742 1C3.02335 1 1.52295 2.42981 1.52295 4.19357C1.52295 5.95733 3.02335 7.38714 4.8742 7.38714Z" stroke="#001145" stroke-width="2"/>
<path d="M1.52295 12.1777H8.22544V32.1376H1.52295V12.1777ZM14.9279 19.7625V32.1376H20.7926V20.9601C20.7926 18.9641 22.0493 17.3673 24.1439 17.3673C26.2384 17.3673 27.4951 19.3633 27.4951 20.9601V32.1376H33.3598V19.7625C33.3598 17.3673 30.4275 12.1777 24.1439 12.1777C17.8603 12.1777 14.9279 17.3673 14.9279 19.7625Z" stroke="#001145" stroke-width="2" stroke-linejoin="round"/>
</svg>
