<svg width="38" height="31" viewBox="0 0 38 31" fill="none" xmlns="http://www.w3.org/2000/svg">
<path d="M36.0002 2.12467C34.2654 2.95605 32.5653 3.2937 30.7958 3.80441C28.851 1.65807 25.9677 1.5393 23.1972 2.55393C20.4267 3.56856 18.6121 6.04915 18.652 8.89453V10.5912C13.0225 10.7321 8.00881 8.22433 4.77336 3.80441C4.77336 3.80441 -2.48168 16.416 11.7127 22.4682C8.46507 24.584 5.22615 26.0109 1.30371 25.8616C7.04252 28.9208 13.2966 29.9727 18.711 28.4355C24.9216 26.6709 30.0255 22.1187 31.9841 15.2996C32.5684 13.2257 32.8585 11.083 32.8463 8.93186C32.8463 8.50938 35.4659 4.22858 36.0002 2.12297V2.12467Z" stroke="#001145" stroke-width="2.19062" stroke-linecap="round" stroke-linejoin="round"/>
</svg>
